<svg xmlns="http://www.w3.org/2000/svg" xmlns:xlink="http://www.w3.org/1999/xlink" width="500" zoomAndPan="magnify" viewBox="0 0 375 374.999991" height="500" preserveAspectRatio="xMidYMid meet" version="1.0"><defs><clipPath id="fddba878fc"><path d="M 109 53.066406 L 266 53.066406 L 266 261 L 109 261 Z M 109 53.066406 " clip-rule="nonzero"/></clipPath><clipPath id="90d6f35304"><path d="M 64.300781 67.316406 L 64.300781 267.613281 C 64.300781 275.484375 70.683594 281.863281 78.550781 281.863281 L 280.578125 281.863281 C 288.445312 281.863281 294.828125 275.484375 294.828125 267.613281 L 294.828125 67.316406 C 294.828125 59.449219 288.445312 53.066406 280.578125 53.066406 L 78.550781 53.066406 C 70.683594 53.066406 64.300781 59.449219 64.300781 67.316406 Z M 64.300781 67.316406 " clip-rule="nonzero"/></clipPath><clipPath id="f3bb274a12"><path d="M 80 88 L 173 88 L 173 261 L 80 261 Z M 80 88 " clip-rule="nonzero"/></clipPath><clipPath id="c490da28a8"><path d="M 64.300781 67.316406 L 64.300781 267.613281 C 64.300781 275.484375 70.683594 281.863281 78.550781 281.863281 L 280.578125 281.863281 C 288.445312 281.863281 294.828125 275.484375 294.828125 267.613281 L 294.828125 67.316406 C 294.828125 59.449219 288.445312 53.066406 280.578125 53.066406 L 78.550781 53.066406 C 70.683594 53.066406 64.300781 59.449219 64.300781 67.316406 Z M 64.300781 67.316406 " clip-rule="nonzero"/></clipPath><clipPath id="40a70eec30"><path d="M 64.300781 233 L 294.550781 233 L 294.550781 280 L 64.300781 280 Z M 64.300781 233 " clip-rule="nonzero"/></clipPath><clipPath id="7b97846f8d"><path d="M 64.300781 67.316406 L 64.300781 267.613281 C 64.300781 275.484375 70.683594 281.863281 78.550781 281.863281 L 280.578125 281.863281 C 288.445312 281.863281 294.828125 275.484375 294.828125 267.613281 L 294.828125 67.316406 C 294.828125 59.449219 288.445312 53.066406 280.578125 53.066406 L 78.550781 53.066406 C 70.683594 53.066406 64.300781 59.449219 64.300781 67.316406 Z M 64.300781 67.316406 " clip-rule="nonzero"/></clipPath><clipPath id="e8072180d8"><path d="M 89.886719 53.066406 L 151 53.066406 L 151 82 L 89.886719 82 Z M 89.886719 53.066406 " clip-rule="nonzero"/></clipPath><clipPath id="60b47cfb52"><path d="M 99 65 L 183.636719 65 L 183.636719 94 L 99 94 Z M 99 65 " clip-rule="nonzero"/></clipPath><clipPath id="1bc40d5396"><path d="M 89.886719 101 L 151 101 L 151 130.316406 L 89.886719 130.316406 Z M 89.886719 101 " clip-rule="nonzero"/></clipPath><clipPath id="5347d6d762"><path d="M 268.203125 153.078125 L 278.855469 153.078125 L 278.855469 155.066406 L 268.203125 155.066406 Z M 268.203125 153.078125 " clip-rule="nonzero"/></clipPath><clipPath id="58678b437d"><path d="M 276.96875 155.265625 C 274.679688 155.46875 272.375 155.46875 270.089844 155.265625 C 269.042969 155.175781 268.203125 154.160156 268.207031 153.078125 C 271.804688 153.472656 275.25 153.472656 278.851562 153.078125 C 278.855469 154.160156 278.015625 155.175781 276.96875 155.265625 Z M 276.96875 155.265625 " clip-rule="nonzero"/></clipPath><clipPath id="1ff9e17fc4"><path d="M 276.96875 155.265625 C 274.679688 155.46875 272.375 155.46875 270.089844 155.265625 C 269.042969 155.175781 268.203125 154.160156 268.207031 153.078125 C 271.804688 153.472656 275.25 153.472656 278.851562 153.078125 C 278.855469 154.160156 278.015625 155.175781 276.96875 155.265625 " clip-rule="nonzero"/></clipPath><linearGradient x1="-0.000444088" gradientTransform="matrix(10.644689, 0, 0, 10.644689, 268.206238, 154.247866)" y1="0" x2="1.000443" gradientUnits="userSpaceOnUse" y2="0" id="2d52356ffd"><stop stop-opacity="1" stop-color="rgb(35.699463%, 38.798523%, 42.698669%)" offset="0"/><stop stop-opacity="1" stop-color="rgb(35.699463%, 38.798523%, 42.698669%)" offset="0.015625"/><stop stop-opacity="1" stop-color="rgb(35.604858%, 38.705444%, 42.628479%)" offset="0.0234375"/><stop stop-opacity="1" stop-color="rgb(35.40802%, 38.50708%, 42.480469%)" offset="0.03125"/><stop stop-opacity="1" stop-color="rgb(35.205078%, 38.305664%, 42.401123%)" offset="0.0390625"/><stop stop-opacity="1" stop-color="rgb(35.009766%, 38.110352%, 42.399597%)" offset="0.046875"/><stop stop-opacity="1" stop-color="rgb(34.716797%, 37.817383%, 42.210388%)" offset="0.0625"/><stop stop-opacity="1" stop-color="rgb(34.509277%, 37.609863%, 42.010498%)" offset="0.078125"/><stop stop-opacity="1" stop-color="rgb(34.306335%, 37.454224%, 41.80603%)" offset="0.09375"/><stop stop-opacity="1" stop-color="rgb(34.010315%, 37.208557%, 41.60614%)" offset="0.101562"/><stop stop-opacity="1" stop-color="rgb(33.802795%, 37.002563%, 41.598511%)" offset="0.109375"/><stop stop-opacity="1" stop-color="rgb(33.601379%, 36.898804%, 41.500854%)" offset="0.117188"/><stop stop-opacity="1" stop-color="rgb(33.404541%, 36.898804%, 41.305542%)" offset="0.125"/><stop stop-opacity="1" stop-color="rgb(33.302307%, 36.708069%, 41.203308%)" offset="0.140625"/><stop stop-opacity="1" stop-color="rgb(33.203125%, 36.413574%, 41.104126%)" offset="0.148438"/><stop stop-opacity="1" stop-color="rgb(33.004761%, 36.204529%, 40.904236%)" offset="0.15625"/><stop stop-opacity="1" stop-color="rgb(32.705688%, 36.099243%, 40.79895%)" offset="0.171875"/><stop stop-opacity="1" stop-color="rgb(32.504272%, 35.908508%, 40.608215%)" offset="0.1875"/><stop stop-opacity="1" stop-color="rgb(32.350159%, 35.708618%, 40.408325%)" offset="0.203125"/><stop stop-opacity="1" stop-color="rgb(32.006836%, 35.505676%, 40.205383%)" offset="0.21875"/><stop stop-opacity="1" stop-color="rgb(31.80542%, 35.20813%, 40.005493%)" offset="0.226562"/><stop stop-opacity="1" stop-color="rgb(31.797791%, 35.002136%, 39.997864%)" offset="0.234375"/><stop stop-opacity="1" stop-color="rgb(31.698608%, 34.899902%, 39.898682%)" offset="0.242188"/><stop stop-opacity="1" stop-color="rgb(31.50177%, 34.899902%, 39.701843%)" offset="0.25"/><stop stop-opacity="1" stop-color="rgb(31.208801%, 34.706116%, 39.601135%)" offset="0.265625"/><stop stop-opacity="1" stop-color="rgb(31.005859%, 34.506226%, 39.598083%)" offset="0.28125"/><stop stop-opacity="1" stop-color="rgb(30.900574%, 34.399414%, 39.500427%)" offset="0.289062"/><stop stop-opacity="1" stop-color="rgb(30.705261%, 34.204102%, 39.305115%)" offset="0.296875"/><stop stop-opacity="1" stop-color="rgb(30.508423%, 34.008789%, 39.202881%)" offset="0.304688"/><stop stop-opacity="1" stop-color="rgb(30.31311%, 33.813477%, 39.199829%)" offset="0.3125"/><stop stop-opacity="1" stop-color="rgb(30.206299%, 33.706665%, 39.103699%)" offset="0.320312"/><stop stop-opacity="1" stop-color="rgb(30.198669%, 33.699036%, 38.903809%)" offset="0.328125"/><stop stop-opacity="1" stop-color="rgb(30.003357%, 33.503723%, 38.798523%)" offset="0.34375"/><stop stop-opacity="1" stop-color="rgb(29.800415%, 33.300781%, 38.795471%)" offset="0.359375"/><stop stop-opacity="1" stop-color="rgb(29.597473%, 33.097839%, 38.597107%)" offset="0.375"/><stop stop-opacity="1" stop-color="rgb(29.400635%, 32.901001%, 38.400269%)" offset="0.390625"/><stop stop-opacity="1" stop-color="rgb(29.301453%, 32.800293%, 38.398743%)" offset="0.398438"/><stop stop-opacity="1" stop-color="rgb(29.101562%, 32.600403%, 38.397217%)" offset="0.40625"/><stop stop-opacity="1" stop-color="rgb(28.999329%, 32.499695%, 38.296509%)" offset="0.414062"/><stop stop-opacity="1" stop-color="rgb(28.999329%, 32.499695%, 38.101196%)" offset="0.421875"/><stop stop-opacity="1" stop-color="rgb(28.805542%, 32.354736%, 38.000488%)" offset="0.4375"/><stop stop-opacity="1" stop-color="rgb(28.507996%, 32.203674%, 37.901306%)" offset="0.453125"/><stop stop-opacity="1" stop-color="rgb(28.303528%, 32.199097%, 37.702942%)" offset="0.46875"/><stop stop-opacity="1" stop-color="rgb(28.102112%, 32.099915%, 37.600708%)" offset="0.484375"/><stop stop-opacity="1" stop-color="rgb(27.900696%, 31.900024%, 37.599182%)" offset="0.5"/><stop stop-opacity="1" stop-color="rgb(27.799988%, 31.698608%, 37.522888%)" offset="0.515625"/><stop stop-opacity="1" stop-color="rgb(27.798462%, 31.497192%, 37.373352%)" offset="0.53125"/><stop stop-opacity="1" stop-color="rgb(27.723694%, 31.297302%, 37.298584%)" offset="0.546875"/><stop stop-opacity="1" stop-color="rgb(27.577209%, 31.10199%, 37.298584%)" offset="0.5625"/><stop stop-opacity="1" stop-color="rgb(27.403259%, 30.903625%, 37.200928%)" offset="0.578125"/><stop stop-opacity="1" stop-color="rgb(27.201843%, 30.702209%, 37.002563%)" offset="0.59375"/><stop stop-opacity="1" stop-color="rgb(27.000427%, 30.599976%, 36.799622%)" offset="0.609375"/><stop stop-opacity="1" stop-color="rgb(26.799011%, 30.59845%, 36.598206%)" offset="0.625"/><stop stop-opacity="1" stop-color="rgb(26.596069%, 30.496216%, 36.499023%)" offset="0.640625"/><stop stop-opacity="1" stop-color="rgb(26.396179%, 30.2948%, 36.499023%)" offset="0.65625"/><stop stop-opacity="1" stop-color="rgb(26.298523%, 29.998779%, 36.499023%)" offset="0.6875"/><stop stop-opacity="1" stop-color="rgb(26.199341%, 29.800415%, 36.399841%)" offset="0.703125"/><stop stop-opacity="1" stop-color="rgb(26.000977%, 29.798889%, 36.199951%)" offset="0.71875"/><stop stop-opacity="1" stop-color="rgb(25.898743%, 29.698181%, 36.099243%)" offset="0.734375"/><stop stop-opacity="1" stop-color="rgb(25.897217%, 29.498291%, 36.097717%)" offset="0.75"/><stop stop-opacity="1" stop-color="rgb(25.798035%, 29.399109%, 35.998535%)" offset="0.78125"/><stop stop-opacity="1" stop-color="rgb(25.59967%, 29.399109%, 35.800171%)" offset="0.8125"/><stop stop-opacity="1" stop-color="rgb(25.39978%, 29.298401%, 35.699463%)" offset="0.84375"/><stop stop-opacity="1" stop-color="rgb(25.198364%, 29.098511%, 35.697937%)" offset="0.875"/><stop stop-opacity="1" stop-color="rgb(24.996948%, 28.897095%, 35.597229%)" offset="0.9375"/><stop stop-opacity="1" stop-color="rgb(24.798584%, 28.69873%, 35.398865%)" offset="1"/></linearGradient><clipPath id="b8a1442eec"><path d="M 262.820312 140.660156 L 284.234375 140.660156 L 284.234375 143.84375 L 262.820312 143.84375 Z M 262.820312 140.660156 " clip-rule="nonzero"/></clipPath><clipPath id="2445797f57"><path d="M 280.148438 152.953125 C 275.640625 153.589844 271.414062 153.589844 266.910156 152.953125 C 264.511719 152.59375 262.917969 150.023438 262.824219 147.78125 C 262.851562 144.683594 262.875 141.589844 262.902344 138.492188 C 270.058594 140.03125 277 140.03125 284.152344 138.492188 C 284.179688 141.589844 284.207031 144.683594 284.234375 147.78125 C 284.300781 150.15625 282.402344 152.429688 280.148438 152.953125 " clip-rule="nonzero"/></clipPath><clipPath id="71c7cf5e58"><path d="M 262.820312 143.941406 L 284.234375 143.941406 L 284.234375 147.226562 L 262.820312 147.226562 Z M 262.820312 143.941406 " clip-rule="nonzero"/></clipPath><clipPath id="ea4cf7ebbf"><path d="M 280.148438 152.953125 C 275.640625 153.589844 271.414062 153.589844 266.910156 152.953125 C 264.511719 152.59375 262.917969 150.023438 262.824219 147.78125 C 262.851562 144.683594 262.875 141.589844 262.902344 138.492188 C 270.058594 140.03125 277 140.03125 284.152344 138.492188 C 284.179688 141.589844 284.207031 144.683594 284.234375 147.78125 C 284.300781 150.15625 282.402344 152.429688 280.148438 152.953125 " clip-rule="nonzero"/></clipPath><clipPath id="ea2b0167c5"><path d="M 262.820312 147.277344 L 284.234375 147.277344 L 284.234375 150.660156 L 262.820312 150.660156 Z M 262.820312 147.277344 " clip-rule="nonzero"/></clipPath><clipPath id="395e87dfba"><path d="M 280.148438 152.953125 C 275.640625 153.589844 271.414062 153.589844 266.910156 152.953125 C 264.511719 152.59375 262.917969 150.023438 262.824219 147.78125 C 262.851562 144.683594 262.875 141.589844 262.902344 138.492188 C 270.058594 140.03125 277 140.03125 284.152344 138.492188 C 284.179688 141.589844 284.207031 144.683594 284.234375 147.78125 C 284.300781 150.15625 282.402344 152.429688 280.148438 152.953125 " clip-rule="nonzero"/></clipPath><clipPath id="45f3ba7e7f"><path d="M 251.355469 96.417969 L 268.277344 96.417969 L 268.277344 139.5 L 251.355469 139.5 Z M 251.355469 96.417969 " clip-rule="nonzero"/></clipPath><clipPath id="90993cfcc6"><path d="M 246.082031 98.917969 C 246.082031 83.757812 258.371094 71.46875 273.53125 71.46875 C 288.6875 71.46875 300.976562 83.757812 300.976562 98.917969 C 300.976562 105.972656 298.316406 112.40625 293.941406 117.269531 C 289.929688 121.71875 287.492188 129.757812 287.011719 136.765625 C 286.9375 137.863281 286.117188 138.566406 284.925781 138.714844 C 284.925781 138.714844 279.996094 139.726562 273.59375 139.726562 C 267.191406 139.726562 262.199219 138.714844 262.199219 138.714844 C 261.023438 138.398438 260.1875 137.863281 260.113281 136.765625 C 259.636719 129.777344 257.144531 121.765625 253.152344 117.308594 C 253.144531 117.300781 253.136719 117.289062 253.128906 117.28125 C 248.746094 112.417969 246.082031 105.976562 246.082031 98.917969 " clip-rule="nonzero"/></clipPath><clipPath id="12fbd0ee75"><path d="M 279.539062 99.546875 L 295.953125 99.546875 L 295.953125 139.449219 L 279.539062 139.449219 Z M 279.539062 99.546875 " clip-rule="nonzero"/></clipPath><clipPath id="8f57feee3e"><path d="M 246.082031 98.917969 C 246.082031 83.757812 258.371094 71.46875 273.53125 71.46875 C 288.6875 71.46875 300.976562 83.757812 300.976562 98.917969 C 300.976562 105.972656 298.316406 112.40625 293.941406 117.269531 C 289.929688 121.71875 287.492188 129.757812 287.011719 136.765625 C 286.9375 137.863281 286.117188 138.566406 284.925781 138.714844 C 284.925781 138.714844 279.996094 139.726562 273.59375 139.726562 C 267.191406 139.726562 262.199219 138.714844 262.199219 138.714844 C 261.023438 138.398438 260.1875 137.863281 260.113281 136.765625 C 259.636719 129.777344 257.144531 121.765625 253.152344 117.308594 C 253.144531 117.300781 253.136719 117.289062 253.128906 117.28125 C 248.746094 112.417969 246.082031 105.976562 246.082031 98.917969 " clip-rule="nonzero"/></clipPath><clipPath id="dde769d662"><path d="M 226.710938 53.082031 L 317.460938 53.082031 L 317.460938 130.710938 L 226.710938 130.710938 Z M 226.710938 53.082031 " clip-rule="nonzero"/></clipPath></defs><rect x="-37.5" width="450" fill="#ffffff" y="-37.499999" height="449.999989" fill-opacity="1"/><rect x="-37.5" width="450" fill="#ffffff" y="-37.499999" height="449.999989" fill-opacity="1"/><g clip-path="url(#fddba878fc)"><g clip-path="url(#90d6f35304)"><path fill="#002a5e" d="M 177.65625 53.070312 C 177.65625 53.070312 233.773438 197.484375 109.261719 260.667969 C 150.457031 256.820312 224.976562 202.578125 265.480469 222.527344 C 265.480469 222.527344 271.050781 136.386719 177.65625 53.070312 " fill-opacity="1" fill-rule="nonzero"/></g></g><g clip-path="url(#f3bb274a12)"><g clip-path="url(#c490da28a8)"><path fill="#002a5e" d="M 160.921875 88.855469 C 160.921875 88.855469 190.640625 198.554688 80.359375 260.667969 C 80.359375 260.667969 211.734375 227.890625 160.921875 88.855469 " fill-opacity="1" fill-rule="nonzero"/></g></g><g clip-path="url(#40a70eec30)"><g clip-path="url(#7b97846f8d)"><path fill="#002a5e" d="M 64.339844 263.28125 C 67.316406 265.207031 70.398438 266.976562 73.570312 268.570312 C 97.769531 280.730469 125.695312 281.871094 152.003906 277.503906 C 180.792969 272.726562 206.574219 259.691406 233.8125 249.945312 C 253.515625 242.894531 275.554688 239.261719 294.847656 249.574219 C 271.441406 227.480469 231.769531 232.160156 204.460938 242.152344 C 177.515625 252.011719 152.46875 264.949219 123.628906 268.550781 C 105.300781 270.839844 85.449219 270.585938 67.773438 264.566406 C 66.613281 264.171875 65.464844 263.757812 64.339844 263.28125 " fill-opacity="1" fill-rule="nonzero"/></g></g><g clip-path="url(#e8072180d8)"><path fill="#daa520" d="M 136.464844 81.855469 L 92.164062 81.855469 C 90.90625 81.855469 89.882812 80.832031 89.882812 79.574219 C 89.882812 78.316406 90.90625 77.292969 92.164062 77.292969 L 136.464844 77.292969 C 141.871094 77.292969 146.269531 72.898438 146.269531 67.492188 C 146.269531 62.085938 141.871094 57.6875 136.464844 57.6875 C 131.0625 57.6875 126.664062 62.085938 126.664062 67.492188 C 126.664062 68.75 125.640625 69.769531 124.382812 69.769531 C 123.125 69.769531 122.101562 68.75 122.101562 67.492188 C 122.101562 63.652344 123.597656 60.046875 126.308594 57.332031 C 129.023438 54.621094 132.628906 53.125 136.464844 53.125 C 140.304688 53.125 143.910156 54.621094 146.625 57.332031 C 149.335938 60.046875 150.832031 63.652344 150.832031 67.492188 C 150.832031 71.328125 149.335938 74.933594 146.625 77.648438 C 143.910156 80.359375 140.304688 81.855469 136.464844 81.855469 Z M 136.464844 81.855469 " fill-opacity="1" fill-rule="nonzero"/></g><g clip-path="url(#60b47cfb52)"><path fill="#daa520" d="M 169.214844 93.9375 L 102.121094 93.9375 C 100.863281 93.9375 99.839844 92.917969 99.839844 91.65625 C 99.839844 90.398438 100.863281 89.378906 102.121094 89.378906 L 169.214844 89.378906 C 174.621094 89.378906 179.019531 84.980469 179.019531 79.574219 C 179.019531 74.167969 174.621094 69.769531 169.214844 69.769531 C 163.808594 69.769531 159.410156 74.167969 159.410156 79.574219 C 159.410156 80.832031 158.390625 81.855469 157.132812 81.855469 C 155.871094 81.855469 154.851562 80.832031 154.851562 79.574219 C 154.851562 75.738281 156.347656 72.128906 159.058594 69.417969 C 161.769531 66.703125 165.378906 65.210938 169.214844 65.210938 C 173.050781 65.210938 176.660156 66.703125 179.371094 69.417969 C 182.085938 72.128906 183.578125 75.738281 183.578125 79.574219 C 183.578125 83.410156 182.085938 87.019531 179.371094 89.730469 C 176.660156 92.445312 173.050781 93.9375 169.214844 93.9375 Z M 169.214844 93.9375 " fill-opacity="1" fill-rule="nonzero"/></g><g clip-path="url(#1bc40d5396)"><path fill="#daa520" d="M 136.464844 130.191406 C 132.628906 130.191406 129.023438 128.695312 126.308594 125.984375 C 123.597656 123.269531 122.101562 119.664062 122.101562 115.828125 C 122.101562 114.566406 123.125 113.546875 124.382812 113.546875 C 125.640625 113.546875 126.664062 114.566406 126.664062 115.828125 C 126.664062 121.230469 131.058594 125.628906 136.464844 125.628906 C 141.871094 125.628906 146.269531 121.234375 146.269531 115.828125 C 146.269531 110.421875 141.871094 106.023438 136.464844 106.023438 L 92.164062 106.023438 C 90.90625 106.023438 89.882812 105.003906 89.882812 103.742188 C 89.882812 102.484375 90.90625 101.464844 92.164062 101.464844 L 136.464844 101.464844 C 140.304688 101.464844 143.910156 102.957031 146.625 105.671875 C 149.335938 108.382812 150.832031 111.992188 150.832031 115.828125 C 150.832031 119.664062 149.335938 123.269531 146.625 125.984375 C 143.910156 128.695312 140.304688 130.191406 136.464844 130.191406 Z M 136.464844 130.191406 " fill-opacity="1" fill-rule="nonzero"/></g><g clip-path="url(#5347d6d762)"><g clip-path="url(#58678b437d)"><g clip-path="url(#1ff9e17fc4)"><path fill="url(#2d52356ffd)" d="M 268.203125 153.078125 L 268.203125 155.066406 L 278.855469 155.066406 L 278.855469 153.078125 Z M 268.203125 153.078125 " fill-rule="nonzero"/></g></g></g><path fill="#008080" d="M 280.148438 152.953125 C 275.640625 153.589844 271.414062 153.589844 266.910156 152.953125 C 264.511719 152.59375 262.917969 150.023438 262.824219 147.78125 C 262.851562 144.683594 262.875 141.589844 262.902344 138.492188 C 270.058594 140.03125 277 140.03125 284.152344 138.492188 C 284.179688 141.589844 284.207031 144.683594 284.234375 147.78125 C 284.300781 150.15625 282.402344 152.429688 280.148438 152.953125 " fill-opacity="1" fill-rule="nonzero"/><g clip-path="url(#b8a1442eec)"><g clip-path="url(#2445797f57)"><path fill="#ffffff" d="M 262.8125 143.136719 C 262.789062 142.636719 262.773438 142.386719 262.75 141.890625 C 270.070312 143.132812 277.078125 142.691406 284.222656 140.6875 C 284.257812 141.167969 284.273438 141.40625 284.304688 141.890625 C 277.15625 143.933594 270.144531 144.386719 262.8125 143.136719 " fill-opacity="1" fill-rule="nonzero"/></g></g><g clip-path="url(#71c7cf5e58)"><g clip-path="url(#ea4cf7ebbf)"><path fill="#ffffff" d="M 262.78125 146.464844 C 262.757812 145.957031 262.746094 145.703125 262.722656 145.199219 C 270.070312 146.507812 277.089844 146.054688 284.253906 143.976562 C 284.285156 144.460938 284.300781 144.707031 284.335938 145.195312 C 277.167969 147.320312 270.144531 147.785156 262.78125 146.464844 " fill-opacity="1" fill-rule="nonzero"/></g></g><g clip-path="url(#ea2b0167c5)"><g clip-path="url(#395e87dfba)"><path fill="#ffffff" d="M 262.753906 149.855469 C 262.730469 149.335938 262.71875 149.078125 262.695312 148.5625 C 270.070312 149.941406 277.101562 149.480469 284.28125 147.320312 C 284.316406 147.8125 284.332031 148.0625 284.363281 148.5625 C 277.179688 150.765625 270.144531 151.242188 262.753906 149.855469 " fill-opacity="1" fill-rule="nonzero"/></g></g><path fill="#008080" d="M 246.082031 98.917969 C 246.082031 83.757812 258.371094 71.46875 273.53125 71.46875 C 288.6875 71.46875 300.980469 83.757812 300.980469 98.917969 C 300.980469 105.972656 298.316406 112.40625 293.941406 117.269531 C 289.929688 121.71875 287.492188 129.757812 287.011719 136.765625 C 286.9375 137.863281 286.121094 138.566406 284.925781 138.714844 C 284.925781 138.714844 279.996094 139.726562 273.59375 139.726562 C 267.191406 139.726562 262.199219 138.714844 262.199219 138.714844 C 261.023438 138.398438 260.1875 137.863281 260.113281 136.765625 C 259.636719 129.777344 257.144531 121.765625 253.152344 117.308594 C 253.144531 117.300781 253.136719 117.289062 253.128906 117.28125 C 248.746094 112.417969 246.082031 105.976562 246.082031 98.917969 " fill-opacity="1" fill-rule="nonzero"/><g clip-path="url(#45f3ba7e7f)"><g clip-path="url(#90993cfcc6)"><path fill="#fae4b7" d="M 268.148438 139.496094 C 267.863281 139.46875 267.585938 139.445312 267.316406 139.417969 C 267.324219 138.789062 267.339844 138.117188 267.359375 137.425781 C 267.480469 132.332031 267.648438 125.351562 265.710938 118.828125 C 264.28125 114.003906 261.027344 110.714844 257.878906 107.535156 C 254.53125 104.148438 251.367188 100.949219 251.367188 96.4375 L 252.199219 96.4375 C 252.199219 100.605469 255.109375 103.542969 258.472656 106.949219 C 261.542969 110.050781 265.019531 113.566406 266.511719 118.59375 C 268.484375 125.242188 268.316406 132.296875 268.191406 137.445312 C 268.175781 138.160156 268.15625 138.847656 268.148438 139.496094 " fill-opacity="1" fill-rule="nonzero"/></g></g><g clip-path="url(#12fbd0ee75)"><g clip-path="url(#8f57feee3e)"><path fill="#fae4b7" d="M 279.6875 139.4375 C 279.675781 138.746094 279.65625 138.015625 279.632812 137.257812 C 279.496094 131.996094 279.300781 124.789062 281.523438 118.175781 C 282.289062 115.894531 283.496094 113.5 285.113281 111.050781 C 286.402344 109.101562 287.953125 107.113281 289.71875 105.144531 C 292.726562 101.792969 295.371094 99.617188 295.394531 99.597656 L 295.925781 100.242188 C 295.898438 100.261719 293.296875 102.402344 290.332031 105.710938 C 287.605469 108.75 284 113.425781 282.316406 118.441406 C 280.140625 124.914062 280.332031 132.035156 280.46875 137.234375 C 280.488281 137.96875 280.507812 138.679688 280.519531 139.351562 C 280.25 139.378906 279.972656 139.410156 279.6875 139.4375 " fill-opacity="1" fill-rule="nonzero"/></g></g><path fill="#ffffff" d="M 260.832031 93.851562 C 260.84375 93.894531 260.835938 93.949219 260.808594 94.007812 C 260.785156 94.066406 260.75 94.128906 260.710938 94.191406 C 260.671875 94.253906 260.621094 94.316406 260.566406 94.375 C 260.511719 94.433594 260.453125 94.488281 260.394531 94.53125 C 260.214844 94.667969 259.996094 94.789062 259.742188 94.902344 C 259.484375 95.011719 259.238281 95.109375 258.996094 95.195312 C 258.753906 95.277344 258.539062 95.34375 258.347656 95.394531 C 258.15625 95.449219 258.03125 95.480469 257.972656 95.496094 C 257.921875 95.507812 257.855469 95.609375 257.765625 95.800781 C 257.679688 95.992188 257.582031 96.238281 257.476562 96.539062 C 257.371094 96.839844 257.257812 97.179688 257.144531 97.558594 C 257.03125 97.9375 256.921875 98.316406 256.816406 98.691406 C 256.730469 99 256.648438 99.300781 256.566406 99.59375 C 256.484375 99.886719 256.402344 100.160156 256.324219 100.40625 C 256.25 100.652344 256.171875 100.867188 256.097656 101.046875 C 256.027344 101.226562 255.957031 101.359375 255.890625 101.445312 C 255.832031 101.5 255.769531 101.546875 255.703125 101.589844 C 255.636719 101.632812 255.5625 101.667969 255.472656 101.695312 C 255.3125 101.742188 255.160156 101.753906 255.015625 101.730469 C 254.867188 101.703125 254.730469 101.628906 254.609375 101.5 C 254.464844 101.351562 254.3125 101.171875 254.15625 100.972656 C 254 100.773438 253.84375 100.5625 253.679688 100.335938 C 253.515625 100.109375 253.355469 99.871094 253.191406 99.625 C 253.03125 99.378906 252.867188 99.132812 252.703125 98.882812 C 252.433594 98.472656 252.167969 98.0625 251.898438 97.652344 C 251.648438 97.265625 251.394531 96.933594 251.136719 96.65625 C 251.097656 96.542969 251.101562 96.433594 251.144531 96.328125 C 251.191406 96.21875 251.253906 96.121094 251.339844 96.03125 C 251.425781 95.945312 251.515625 95.867188 251.613281 95.804688 C 251.714844 95.742188 251.800781 95.699219 251.871094 95.675781 C 251.929688 95.65625 251.992188 95.644531 252.0625 95.632812 C 252.132812 95.625 252.203125 95.625 252.273438 95.625 C 252.339844 95.628906 252.40625 95.640625 252.464844 95.652344 C 252.527344 95.667969 252.574219 95.6875 252.605469 95.714844 C 252.730469 95.835938 252.84375 95.96875 252.945312 96.117188 C 253.042969 96.261719 253.140625 96.417969 253.234375 96.585938 C 253.328125 96.75 253.421875 96.925781 253.515625 97.109375 C 253.605469 97.292969 253.707031 97.488281 253.816406 97.683594 C 253.910156 97.855469 254.015625 98.050781 254.121094 98.265625 C 254.226562 98.480469 254.339844 98.699219 254.457031 98.917969 C 254.574219 99.140625 254.691406 99.359375 254.808594 99.570312 C 254.929688 99.785156 255.046875 99.976562 255.167969 100.148438 C 255.210938 100.035156 255.25 99.878906 255.292969 99.6875 C 255.335938 99.5 255.375 99.292969 255.417969 99.070312 C 255.457031 98.84375 255.5 98.617188 255.539062 98.386719 C 255.582031 98.152344 255.625 97.933594 255.667969 97.730469 C 255.757812 97.3125 255.835938 96.917969 255.90625 96.542969 C 255.976562 96.167969 256.074219 95.835938 256.199219 95.546875 C 256.246094 95.46875 256.296875 95.367188 256.351562 95.238281 C 256.402344 95.113281 256.472656 94.980469 256.554688 94.851562 C 256.640625 94.71875 256.746094 94.597656 256.875 94.484375 C 257 94.371094 257.160156 94.292969 257.351562 94.246094 C 257.496094 94.210938 257.632812 94.1875 257.761719 94.175781 C 257.894531 94.164062 258.027344 94.152344 258.164062 94.144531 C 258.304688 94.136719 258.449219 94.121094 258.609375 94.105469 C 258.765625 94.089844 258.941406 94.058594 259.140625 94.015625 C 259.265625 93.992188 259.398438 93.953125 259.542969 93.902344 C 259.6875 93.855469 259.824219 93.804688 259.953125 93.757812 C 260.082031 93.707031 260.195312 93.664062 260.296875 93.625 C 260.398438 93.585938 260.472656 93.5625 260.523438 93.554688 C 260.628906 93.535156 260.703125 93.550781 260.742188 93.605469 C 260.78125 93.660156 260.8125 93.742188 260.832031 93.851562 " fill-opacity="1" fill-rule="nonzero"/><path fill="#ffffff" d="M 262.140625 89.355469 C 262.164062 89.503906 262.164062 89.648438 262.136719 89.785156 C 262.109375 89.925781 262.054688 90.0625 261.984375 90.191406 C 261.835938 90.457031 261.570312 90.625 261.183594 90.691406 C 261.046875 90.71875 260.90625 90.730469 260.761719 90.734375 C 260.617188 90.738281 260.484375 90.730469 260.363281 90.714844 C 260.242188 90.695312 260.140625 90.660156 260.054688 90.613281 C 259.96875 90.566406 259.921875 90.503906 259.90625 90.421875 C 259.878906 90.285156 259.886719 90.132812 259.9375 89.964844 C 259.988281 89.796875 260.0625 89.636719 260.164062 89.480469 C 260.265625 89.328125 260.386719 89.191406 260.523438 89.078125 C 260.660156 88.964844 260.796875 88.894531 260.9375 88.867188 C 261.113281 88.839844 261.269531 88.820312 261.40625 88.816406 C 261.546875 88.816406 261.664062 88.832031 261.765625 88.863281 C 261.867188 88.898438 261.949219 88.953125 262.011719 89.035156 C 262.078125 89.117188 262.121094 89.222656 262.140625 89.355469 Z M 267.339844 94.289062 C 267.347656 94.390625 267.320312 94.527344 267.257812 94.695312 C 267.191406 94.863281 267.101562 95.050781 266.980469 95.261719 C 266.863281 95.46875 266.722656 95.695312 266.554688 95.941406 C 266.390625 96.183594 266.210938 96.433594 266.023438 96.695312 C 265.816406 96.976562 265.59375 97.261719 265.351562 97.542969 C 265.109375 97.824219 264.855469 98.101562 264.582031 98.375 C 264.316406 98.640625 264.046875 98.859375 263.777344 99.03125 C 263.507812 99.199219 263.242188 99.304688 262.984375 99.351562 C 262.683594 99.402344 262.414062 99.398438 262.171875 99.335938 C 261.929688 99.273438 261.714844 99.167969 261.519531 99.019531 C 261.328125 98.871094 261.15625 98.691406 261.011719 98.480469 C 260.863281 98.269531 260.734375 98.039062 260.621094 97.792969 C 260.507812 97.546875 260.414062 97.292969 260.335938 97.035156 C 260.257812 96.773438 260.195312 96.523438 260.144531 96.285156 C 260.125 96.191406 260.101562 96.050781 260.078125 95.863281 C 260.054688 95.675781 260.03125 95.476562 260.015625 95.265625 C 259.996094 95.054688 259.984375 94.851562 259.976562 94.652344 C 259.964844 94.457031 259.964844 94.296875 259.976562 94.179688 C 260 93.949219 260.121094 93.710938 260.335938 93.464844 C 260.542969 93.234375 260.800781 93.085938 261.101562 93.03125 C 261.410156 92.972656 261.59375 93.121094 261.65625 93.464844 C 261.683594 93.628906 261.703125 93.808594 261.703125 93.996094 C 261.707031 94.1875 261.703125 94.375 261.699219 94.558594 C 261.695312 94.890625 261.710938 95.191406 261.734375 95.457031 C 261.757812 95.71875 261.789062 95.949219 261.828125 96.148438 C 261.867188 96.375 261.921875 96.59375 261.988281 96.800781 C 262.054688 97.007812 262.125 97.191406 262.207031 97.347656 C 262.289062 97.507812 262.378906 97.628906 262.472656 97.71875 C 262.566406 97.804688 262.667969 97.839844 262.773438 97.824219 C 262.90625 97.800781 263.039062 97.765625 263.175781 97.714844 C 263.3125 97.667969 263.472656 97.574219 263.65625 97.4375 C 264.046875 97.132812 264.421875 96.769531 264.753906 96.402344 C 264.886719 96.257812 265.042969 96.085938 265.214844 95.886719 C 265.390625 95.6875 265.566406 95.488281 265.738281 95.28125 C 265.914062 95.074219 266.078125 94.875 266.230469 94.679688 C 266.386719 94.484375 266.507812 94.320312 266.597656 94.183594 C 266.609375 94.160156 266.625 94.128906 266.648438 94.09375 C 266.667969 94.054688 266.695312 94.019531 266.722656 93.980469 C 266.75 93.941406 266.785156 93.90625 266.820312 93.875 C 266.859375 93.847656 266.894531 93.832031 266.933594 93.828125 C 267.007812 93.820312 267.0625 93.824219 267.101562 93.839844 C 267.136719 93.859375 267.179688 93.917969 267.234375 94.015625 C 267.292969 94.121094 267.332031 94.214844 267.339844 94.289062 " fill-opacity="1" fill-rule="nonzero"/><path fill="#ffffff" d="M 267.261719 92.339844 C 267.320312 92.234375 267.402344 92.128906 267.496094 92.019531 C 267.59375 91.910156 267.695312 91.808594 267.800781 91.71875 C 267.910156 91.628906 268.015625 91.550781 268.121094 91.492188 C 268.222656 91.429688 268.3125 91.398438 268.382812 91.390625 C 268.492188 91.382812 268.59375 91.390625 268.691406 91.421875 C 268.792969 91.449219 268.878906 91.492188 268.960938 91.546875 C 269.039062 91.601562 269.101562 91.667969 269.152344 91.742188 C 269.207031 91.820312 269.234375 91.898438 269.238281 91.976562 C 269.246094 92.082031 269.222656 92.191406 269.171875 92.304688 C 269.121094 92.417969 269.054688 92.53125 268.976562 92.644531 C 268.894531 92.757812 268.808594 92.863281 268.714844 92.96875 C 268.621094 93.074219 268.535156 93.171875 268.453125 93.261719 C 268.375 93.351562 268.308594 93.429688 268.253906 93.5 C 268.203125 93.566406 268.175781 93.617188 268.179688 93.65625 C 268.183594 93.707031 268.242188 93.785156 268.355469 93.886719 C 268.464844 93.988281 268.605469 94.101562 268.765625 94.222656 C 268.929688 94.347656 269.109375 94.472656 269.304688 94.601562 C 269.5 94.734375 269.683594 94.851562 269.855469 94.957031 C 270.007812 95.054688 270.140625 95.148438 270.253906 95.246094 C 270.367188 95.34375 270.4375 95.441406 270.464844 95.539062 C 270.625 95.398438 270.769531 95.273438 270.890625 95.164062 C 271.015625 95.054688 271.144531 94.933594 271.28125 94.792969 C 271.417969 94.65625 271.574219 94.492188 271.757812 94.300781 C 271.9375 94.109375 272.164062 93.863281 272.441406 93.558594 C 272.589844 93.394531 272.734375 93.242188 272.871094 93.097656 C 273.003906 92.953125 273.132812 92.828125 273.253906 92.722656 C 273.371094 92.617188 273.480469 92.535156 273.582031 92.472656 C 273.683594 92.410156 273.773438 92.378906 273.847656 92.378906 C 273.96875 92.378906 274.050781 92.417969 274.097656 92.5 C 274.148438 92.585938 274.171875 92.691406 274.171875 92.824219 C 274.171875 92.871094 274.136719 92.960938 274.066406 93.085938 C 273.996094 93.214844 273.902344 93.359375 273.789062 93.523438 C 273.675781 93.691406 273.546875 93.871094 273.402344 94.0625 C 273.261719 94.257812 273.117188 94.445312 272.96875 94.632812 C 272.824219 94.820312 272.683594 94.996094 272.546875 95.160156 C 272.414062 95.324219 272.292969 95.460938 272.1875 95.566406 C 272.167969 95.585938 272.125 95.628906 272.058594 95.699219 C 271.988281 95.769531 271.910156 95.851562 271.820312 95.949219 C 271.726562 96.042969 271.628906 96.144531 271.523438 96.257812 C 271.417969 96.367188 271.316406 96.472656 271.222656 96.574219 C 271.128906 96.675781 271.046875 96.765625 270.972656 96.84375 C 270.902344 96.921875 270.851562 96.976562 270.820312 97.011719 C 270.800781 97.035156 270.753906 97.089844 270.679688 97.179688 C 270.605469 97.269531 270.523438 97.375 270.425781 97.5 C 270.328125 97.621094 270.222656 97.753906 270.113281 97.890625 C 270.003906 98.027344 269.902344 98.160156 269.808594 98.285156 C 269.710938 98.40625 269.628906 98.515625 269.554688 98.605469 C 269.480469 98.695312 269.429688 98.757812 269.40625 98.785156 C 269.175781 99.035156 268.953125 99.246094 268.734375 99.421875 C 268.511719 99.59375 268.277344 99.695312 268.027344 99.71875 C 267.90625 99.730469 267.792969 99.726562 267.6875 99.710938 C 267.582031 99.695312 267.488281 99.667969 267.40625 99.625 C 267.324219 99.582031 267.257812 99.53125 267.207031 99.464844 C 267.15625 99.394531 267.128906 99.316406 267.117188 99.222656 C 267.097656 99.066406 267.132812 98.914062 267.222656 98.773438 C 267.308594 98.632812 267.425781 98.496094 267.566406 98.367188 C 267.710938 98.238281 267.871094 98.113281 268.042969 97.996094 C 268.21875 97.875 268.382812 97.765625 268.539062 97.65625 C 268.789062 97.476562 268.972656 97.28125 269.082031 97.070312 C 269.191406 96.863281 269.242188 96.65625 269.226562 96.460938 C 269.214844 96.316406 269.117188 96.160156 268.929688 95.996094 C 268.742188 95.832031 268.433594 95.640625 268.003906 95.421875 C 267.828125 95.332031 267.667969 95.234375 267.523438 95.125 C 267.378906 95.011719 267.253906 94.902344 267.148438 94.789062 C 267.039062 94.675781 266.957031 94.5625 266.890625 94.445312 C 266.828125 94.332031 266.792969 94.230469 266.78125 94.140625 C 266.765625 93.976562 266.757812 93.828125 266.765625 93.691406 C 266.773438 93.558594 266.792969 93.421875 266.828125 93.289062 C 266.867188 93.152344 266.917969 93.007812 266.988281 92.859375 C 267.058594 92.710938 267.148438 92.535156 267.261719 92.339844 " fill-opacity="1" fill-rule="nonzero"/><path fill="#ffffff" d="M 276.140625 88.402344 C 276.136719 88.550781 276.109375 88.691406 276.054688 88.824219 C 276.003906 88.957031 275.929688 89.078125 275.832031 89.195312 C 275.636719 89.429688 275.347656 89.542969 274.957031 89.539062 C 274.820312 89.539062 274.679688 89.527344 274.535156 89.503906 C 274.394531 89.480469 274.265625 89.449219 274.152344 89.410156 C 274.035156 89.367188 273.941406 89.316406 273.867188 89.253906 C 273.792969 89.191406 273.753906 89.117188 273.753906 89.039062 C 273.753906 88.898438 273.792969 88.75 273.871094 88.59375 C 273.949219 88.4375 274.054688 88.292969 274.183594 88.160156 C 274.308594 88.027344 274.453125 87.917969 274.605469 87.828125 C 274.761719 87.742188 274.910156 87.699219 275.050781 87.703125 C 275.226562 87.703125 275.382812 87.714844 275.519531 87.738281 C 275.65625 87.761719 275.769531 87.796875 275.863281 87.847656 C 275.957031 87.898438 276.027344 87.972656 276.074219 88.0625 C 276.121094 88.15625 276.144531 88.269531 276.140625 88.402344 Z M 280.332031 94.207031 C 280.324219 94.308594 280.273438 94.4375 280.179688 94.589844 C 280.085938 94.742188 279.960938 94.910156 279.804688 95.097656 C 279.648438 95.28125 279.46875 95.476562 279.261719 95.683594 C 279.054688 95.894531 278.832031 96.109375 278.597656 96.328125 C 278.34375 96.566406 278.074219 96.804688 277.785156 97.039062 C 277.496094 97.273438 277.195312 97.5 276.878906 97.714844 C 276.566406 97.929688 276.261719 98.09375 275.964844 98.210938 C 275.671875 98.328125 275.394531 98.382812 275.132812 98.378906 C 274.828125 98.375 274.5625 98.320312 274.339844 98.214844 C 274.113281 98.109375 273.921875 97.964844 273.761719 97.785156 C 273.597656 97.605469 273.464844 97.394531 273.359375 97.160156 C 273.253906 96.925781 273.167969 96.675781 273.105469 96.414062 C 273.039062 96.152344 272.992188 95.886719 272.964844 95.613281 C 272.9375 95.34375 272.917969 95.089844 272.914062 94.84375 C 272.914062 94.75 272.917969 94.609375 272.925781 94.417969 C 272.9375 94.230469 272.953125 94.027344 272.976562 93.820312 C 272.996094 93.609375 273.019531 93.40625 273.046875 93.210938 C 273.074219 93.011719 273.105469 92.859375 273.136719 92.746094 C 273.203125 92.523438 273.363281 92.308594 273.617188 92.109375 C 273.863281 91.917969 274.144531 91.820312 274.449219 91.824219 C 274.761719 91.824219 274.914062 92 274.910156 92.351562 C 274.910156 92.519531 274.894531 92.695312 274.859375 92.882812 C 274.828125 93.070312 274.789062 93.253906 274.753906 93.433594 C 274.6875 93.757812 274.648438 94.058594 274.625 94.320312 C 274.597656 94.585938 274.585938 94.820312 274.585938 95.023438 C 274.585938 95.25 274.597656 95.476562 274.625 95.691406 C 274.648438 95.90625 274.6875 96.101562 274.738281 96.269531 C 274.789062 96.441406 274.851562 96.578125 274.929688 96.679688 C 275.007812 96.785156 275.097656 96.839844 275.207031 96.839844 C 275.339844 96.839844 275.476562 96.832031 275.621094 96.808594 C 275.765625 96.789062 275.9375 96.726562 276.140625 96.621094 C 276.582031 96.398438 277.015625 96.109375 277.40625 95.808594 C 277.566406 95.691406 277.75 95.550781 277.957031 95.386719 C 278.164062 95.222656 278.371094 95.058594 278.578125 94.886719 C 278.789062 94.71875 278.988281 94.550781 279.175781 94.386719 C 279.363281 94.222656 279.511719 94.085938 279.625 93.964844 C 279.640625 93.945312 279.664062 93.917969 279.691406 93.886719 C 279.71875 93.855469 279.75 93.820312 279.785156 93.789062 C 279.820312 93.753906 279.859375 93.726562 279.902344 93.707031 C 279.941406 93.683594 279.984375 93.675781 280.019531 93.679688 C 280.09375 93.683594 280.148438 93.699219 280.183594 93.722656 C 280.214844 93.746094 280.246094 93.8125 280.28125 93.917969 C 280.320312 94.03125 280.339844 94.128906 280.332031 94.207031 " fill-opacity="1" fill-rule="nonzero"/><path fill="#ffffff" d="M 280.667969 97.191406 C 281.027344 97.226562 281.351562 97.160156 281.652344 97 C 281.953125 96.835938 282.214844 96.609375 282.449219 96.3125 C 282.679688 96.015625 282.875 95.667969 283.035156 95.273438 C 283.195312 94.878906 283.398438 94.367188 283.367188 94.03125 C 283.363281 93.972656 283.304688 93.882812 283.25 93.804688 C 283.195312 93.726562 283.132812 93.652344 283.0625 93.585938 C 282.988281 93.519531 282.910156 93.464844 282.832031 93.417969 C 282.75 93.371094 282.675781 93.34375 282.605469 93.335938 C 282.492188 93.324219 282.367188 93.351562 282.226562 93.421875 C 282.085938 93.492188 281.953125 93.566406 281.832031 93.644531 C 281.710938 93.722656 281.585938 93.828125 281.460938 93.964844 C 281.339844 94.097656 281.222656 94.25 281.113281 94.421875 C 281 94.589844 280.898438 94.773438 280.800781 94.964844 C 280.703125 95.15625 280.621094 95.347656 280.546875 95.539062 C 280.476562 95.730469 280.417969 95.914062 280.371094 96.097656 C 280.324219 96.277344 280.296875 96.441406 280.285156 96.585938 C 280.277344 96.65625 280.28125 96.726562 280.296875 96.796875 C 280.316406 96.867188 280.339844 96.929688 280.371094 96.988281 C 280.40625 97.042969 280.445312 97.089844 280.496094 97.128906 C 280.546875 97.164062 280.605469 97.183594 280.667969 97.191406 Z M 289.238281 93.949219 C 289.222656 94.035156 289.171875 94.117188 289.09375 94.199219 C 289.015625 94.28125 288.921875 94.363281 288.8125 94.4375 C 288.703125 94.511719 288.578125 94.585938 288.445312 94.65625 C 288.3125 94.726562 288.179688 94.785156 288.046875 94.839844 C 287.917969 94.894531 287.792969 94.941406 287.679688 94.980469 C 287.566406 95.015625 287.46875 95.046875 287.394531 95.0625 C 287.261719 95.085938 287.09375 95.105469 286.890625 95.109375 C 286.691406 95.117188 286.480469 95.117188 286.261719 95.109375 C 286.042969 95.097656 285.832031 95.089844 285.628906 95.074219 C 285.429688 95.058594 285.257812 95.039062 285.121094 95.019531 C 285.089844 95.015625 285.042969 95.003906 284.988281 94.988281 C 284.929688 94.972656 284.871094 94.953125 284.804688 94.929688 C 284.742188 94.90625 284.675781 94.878906 284.613281 94.847656 C 284.550781 94.820312 284.496094 94.785156 284.457031 94.746094 C 284.492188 94.859375 284.503906 94.972656 284.492188 95.097656 C 284.480469 95.222656 284.46875 95.34375 284.449219 95.464844 C 284.4375 95.550781 284.414062 95.648438 284.378906 95.761719 C 284.34375 95.875 284.300781 95.988281 284.253906 96.105469 C 284.207031 96.222656 284.15625 96.332031 284.097656 96.4375 C 284.042969 96.542969 283.984375 96.632812 283.929688 96.699219 C 283.792969 96.875 283.648438 97.035156 283.5 97.179688 C 283.351562 97.324219 283.1875 97.453125 283.015625 97.574219 C 282.84375 97.691406 282.652344 97.796875 282.445312 97.894531 C 282.238281 97.992188 282 98.085938 281.734375 98.171875 C 281.449219 98.261719 281.167969 98.316406 280.894531 98.335938 C 280.617188 98.355469 280.335938 98.355469 280.050781 98.328125 C 279.835938 98.3125 279.652344 98.238281 279.492188 98.109375 C 279.335938 97.984375 279.207031 97.816406 279.109375 97.617188 C 279.007812 97.414062 278.933594 97.1875 278.890625 96.929688 C 278.851562 96.675781 278.835938 96.410156 278.855469 96.132812 C 278.859375 96.066406 278.871094 95.984375 278.890625 95.882812 C 278.90625 95.78125 278.929688 95.679688 278.957031 95.578125 C 278.984375 95.476562 279.015625 95.378906 279.046875 95.28125 C 279.078125 95.183594 279.109375 95.101562 279.136719 95.035156 C 279.214844 94.851562 279.320312 94.640625 279.460938 94.40625 C 279.601562 94.175781 279.765625 93.9375 279.953125 93.695312 C 280.144531 93.457031 280.351562 93.222656 280.582031 92.996094 C 280.808594 92.769531 281.050781 92.574219 281.304688 92.40625 C 281.558594 92.238281 281.820312 92.109375 282.089844 92.019531 C 282.355469 91.929688 282.621094 91.902344 282.878906 91.933594 C 282.988281 91.945312 283.078125 91.964844 283.140625 91.996094 C 283.207031 92.023438 283.257812 92.058594 283.296875 92.097656 C 283.335938 92.132812 283.371094 92.175781 283.402344 92.226562 C 283.429688 92.273438 283.464844 92.316406 283.503906 92.363281 C 283.539062 92.359375 283.574219 92.355469 283.609375 92.355469 C 283.644531 92.359375 283.683594 92.359375 283.71875 92.363281 C 283.867188 92.382812 284.007812 92.457031 284.132812 92.585938 C 284.261719 92.710938 284.390625 92.847656 284.515625 93 C 284.574219 93.066406 284.632812 93.136719 284.691406 93.207031 C 284.75 93.277344 284.804688 93.339844 284.855469 93.394531 C 284.90625 93.449219 284.949219 93.496094 284.988281 93.53125 C 285.03125 93.566406 285.058594 93.585938 285.078125 93.589844 C 285.199219 93.609375 285.332031 93.628906 285.476562 93.648438 C 285.617188 93.667969 285.765625 93.6875 285.914062 93.703125 C 286.0625 93.722656 286.207031 93.738281 286.34375 93.746094 C 286.484375 93.757812 286.613281 93.761719 286.730469 93.765625 C 286.742188 93.761719 286.808594 93.757812 286.917969 93.753906 C 287.03125 93.75 287.167969 93.742188 287.324219 93.730469 C 287.484375 93.722656 287.65625 93.710938 287.84375 93.703125 C 288.03125 93.691406 288.203125 93.683594 288.363281 93.675781 C 288.523438 93.667969 288.660156 93.664062 288.773438 93.664062 C 288.890625 93.660156 288.957031 93.664062 288.976562 93.667969 C 289.070312 93.6875 289.140625 93.714844 289.195312 93.746094 C 289.246094 93.78125 289.261719 93.847656 289.238281 93.949219 " fill-opacity="1" fill-rule="nonzero"/><path fill="#ffffff" d="M 296.316406 99.464844 C 296.355469 99.476562 296.378906 99.511719 296.386719 99.5625 C 296.398438 99.617188 296.382812 99.695312 296.347656 99.800781 C 296.289062 99.96875 296.171875 100.128906 295.996094 100.289062 C 295.824219 100.445312 295.601562 100.574219 295.335938 100.675781 C 295.066406 100.777344 294.761719 100.832031 294.414062 100.847656 C 294.070312 100.863281 293.695312 100.8125 293.292969 100.691406 C 292.914062 100.578125 292.59375 100.417969 292.324219 100.210938 C 292.054688 100 291.851562 99.738281 291.703125 99.417969 C 291.558594 99.097656 291.480469 98.71875 291.464844 98.28125 C 291.445312 97.785156 291.523438 97.238281 291.648438 96.757812 C 291.402344 96.875 291.144531 97.019531 290.878906 97.203125 C 290.609375 97.386719 290.355469 97.574219 290.109375 97.773438 C 289.867188 97.96875 289.648438 98.15625 289.453125 98.332031 C 289.257812 98.511719 289.109375 98.648438 289.003906 98.746094 C 288.855469 98.890625 288.730469 99.015625 288.632812 99.117188 C 288.535156 99.214844 288.445312 99.296875 288.363281 99.355469 C 288.28125 99.414062 288.195312 99.449219 288.105469 99.464844 C 288.015625 99.480469 287.902344 99.472656 287.765625 99.445312 C 287.640625 99.417969 287.53125 99.375 287.4375 99.316406 C 287.339844 99.253906 287.261719 99.1875 287.199219 99.109375 C 287.132812 99.03125 287.089844 98.953125 287.0625 98.867188 C 287.039062 98.78125 287.03125 98.699219 287.046875 98.617188 C 287.0625 98.542969 287.082031 98.457031 287.113281 98.355469 C 287.140625 98.253906 287.171875 98.152344 287.207031 98.050781 C 287.246094 97.945312 287.28125 97.84375 287.316406 97.742188 C 287.351562 97.644531 287.386719 97.550781 287.414062 97.46875 C 287.453125 97.363281 287.496094 97.25 287.542969 97.128906 C 287.585938 97.007812 287.636719 96.878906 287.691406 96.730469 C 287.746094 96.585938 287.800781 96.425781 287.863281 96.246094 C 287.925781 96.066406 287.992188 95.867188 288.058594 95.648438 C 288.140625 95.386719 288.21875 95.136719 288.292969 94.890625 C 288.367188 94.644531 288.449219 94.394531 288.542969 94.136719 C 288.597656 93.988281 288.65625 93.851562 288.722656 93.726562 C 288.785156 93.605469 288.863281 93.503906 288.953125 93.425781 C 289.042969 93.347656 289.148438 93.296875 289.273438 93.265625 C 289.398438 93.238281 289.550781 93.242188 289.730469 93.28125 C 289.890625 93.316406 290.011719 93.363281 290.097656 93.417969 C 290.183594 93.472656 290.246094 93.539062 290.277344 93.609375 C 290.3125 93.675781 290.324219 93.753906 290.320312 93.832031 C 290.3125 93.910156 290.300781 93.992188 290.285156 94.070312 C 290.273438 94.113281 290.265625 94.152344 290.253906 94.1875 C 290.242188 94.222656 290.230469 94.253906 290.21875 94.285156 C 290.199219 94.351562 290.167969 94.4375 290.128906 94.535156 C 290.085938 94.628906 290.023438 94.765625 289.945312 94.9375 C 289.863281 95.113281 289.753906 95.34375 289.617188 95.632812 C 289.539062 95.796875 289.453125 95.96875 289.367188 96.144531 C 289.28125 96.320312 289.203125 96.488281 289.128906 96.644531 C 289.050781 96.804688 288.988281 96.949219 288.929688 97.078125 C 288.875 97.207031 288.835938 97.304688 288.808594 97.378906 C 288.941406 97.277344 289.101562 97.152344 289.285156 97.003906 C 289.46875 96.851562 289.652344 96.699219 289.839844 96.542969 C 290.027344 96.386719 290.210938 96.238281 290.386719 96.101562 C 290.5625 95.960938 290.714844 95.851562 290.835938 95.769531 C 291.03125 95.640625 291.21875 95.519531 291.40625 95.40625 C 291.589844 95.296875 291.78125 95.203125 291.96875 95.136719 C 292.160156 95.066406 292.351562 95.023438 292.546875 95.007812 C 292.746094 94.992188 292.953125 95.011719 293.167969 95.070312 C 293.292969 95.105469 293.390625 95.144531 293.457031 95.191406 C 293.523438 95.238281 293.566406 95.289062 293.59375 95.347656 C 293.621094 95.402344 293.632812 95.460938 293.625 95.523438 C 293.621094 95.585938 293.609375 95.648438 293.589844 95.714844 C 293.578125 95.757812 293.574219 95.777344 293.5625 95.820312 C 293.554688 95.84375 293.53125 95.90625 293.492188 96 C 293.453125 96.09375 293.410156 96.195312 293.363281 96.304688 C 293.316406 96.414062 293.273438 96.515625 293.234375 96.613281 C 293.195312 96.707031 293.167969 96.773438 293.160156 96.800781 C 293.066406 97.136719 293.007812 97.457031 292.976562 97.761719 C 292.949219 98.066406 292.960938 98.34375 293.011719 98.589844 C 293.0625 98.835938 293.15625 99.046875 293.292969 99.222656 C 293.429688 99.394531 293.621094 99.519531 293.863281 99.589844 C 294.03125 99.640625 294.179688 99.675781 294.3125 99.695312 C 294.441406 99.714844 294.574219 99.722656 294.707031 99.714844 C 294.839844 99.707031 294.980469 99.6875 295.132812 99.652344 C 295.28125 99.617188 295.453125 99.574219 295.65625 99.519531 C 295.730469 99.492188 295.808594 99.472656 295.886719 99.453125 C 295.953125 99.441406 296.027344 99.429688 296.101562 99.429688 C 296.175781 99.429688 296.246094 99.441406 296.316406 99.464844 " fill-opacity="1" fill-rule="nonzero"/><g clip-path="url(#dde769d662)"><path fill="#008080" d="M 291.585938 58.355469 C 291.601562 58.316406 291.613281 58.273438 291.625 58.234375 C 291.789062 57.597656 291.40625 56.949219 290.769531 56.785156 C 290.136719 56.621094 289.488281 57.003906 289.324219 57.636719 C 288.867188 59.394531 288.25 61.144531 287.601562 62.902344 C 286.949219 64.660156 286.269531 66.429688 285.691406 68.246094 C 285.605469 68.523438 285.738281 68.832031 286.011719 68.953125 C 286.304688 69.082031 286.648438 68.949219 286.773438 68.65625 L 286.773438 68.652344 C 287.523438 66.953125 288.378906 65.292969 289.222656 63.601562 C 290.0625 61.910156 290.894531 60.183594 291.582031 58.359375 Z M 305.554688 67.816406 C 305.578125 67.785156 305.605469 67.75 305.628906 67.714844 C 306 67.175781 305.863281 66.433594 305.320312 66.0625 C 304.777344 65.691406 304.039062 65.832031 303.667969 66.371094 C 301.582031 69.421875 299.042969 72.242188 296.570312 75.136719 C 296.382812 75.359375 296.386719 75.691406 296.589844 75.910156 C 296.808594 76.140625 297.175781 76.152344 297.410156 75.933594 C 298.785156 74.632812 300.183594 73.34375 301.558594 72.011719 C 302.929688 70.679688 304.28125 69.300781 305.550781 67.820312 Z M 315.324219 80.738281 C 315.871094 80.371094 316.015625 79.632812 315.648438 79.085938 C 315.28125 78.542969 314.546875 78.398438 314 78.765625 L 313.984375 78.773438 L 312.734375 79.613281 L 312.421875 79.824219 L 311.460938 80.433594 C 310.597656 80.984375 309.734375 81.535156 308.878906 82.097656 C 307.164062 83.222656 305.46875 84.378906 303.8125 85.59375 C 303.578125 85.769531 303.503906 86.097656 303.65625 86.355469 C 303.820312 86.632812 304.175781 86.722656 304.449219 86.558594 L 304.453125 86.558594 C 306.195312 85.527344 307.972656 84.558594 309.769531 83.621094 C 310.671875 83.152344 311.574219 82.691406 312.480469 82.234375 L 313.167969 81.886719 L 313.515625 81.714844 L 313.855469 81.53125 L 315.222656 80.796875 C 315.257812 80.78125 315.292969 80.757812 315.324219 80.738281 Z M 316.515625 100.007812 C 317.171875 99.996094 317.695312 99.453125 317.679688 98.792969 C 317.664062 98.136719 317.121094 97.617188 316.464844 97.632812 L 316.460938 97.632812 C 313.265625 97.699219 310.101562 97.902344 306.945312 98.066406 C 306.660156 98.082031 306.421875 98.308594 306.398438 98.601562 C 306.375 98.921875 306.613281 99.199219 306.933594 99.222656 C 310.09375 99.460938 313.246094 99.667969 316.363281 100.003906 C 316.410156 100.007812 316.46875 100.011719 316.515625 100.007812 Z M 310.847656 115.410156 C 311.441406 115.6875 312.148438 115.429688 312.425781 114.832031 C 312.703125 114.234375 312.441406 113.527344 311.84375 113.25 L 311.835938 113.246094 C 310.464844 112.613281 309.082031 112.144531 307.738281 111.679688 C 306.394531 111.214844 305.085938 110.746094 303.851562 110.125 L 303.847656 110.121094 C 303.59375 109.996094 303.28125 110.070312 303.113281 110.308594 C 302.929688 110.570312 302.992188 110.933594 303.253906 111.117188 C 304.464844 111.960938 305.769531 112.648438 307.042969 113.304688 C 308.320312 113.957031 309.566406 114.59375 310.695312 115.328125 C 310.742188 115.359375 310.796875 115.386719 310.847656 115.410156 Z M 303.082031 129.132812 C 303.488281 129.539062 304.144531 129.535156 304.546875 129.132812 C 304.953125 128.726562 304.953125 128.070312 304.546875 127.667969 L 304.546875 127.664062 C 302.421875 125.546875 300.15625 123.691406 297.996094 121.742188 C 297.808594 121.574219 297.519531 121.566406 297.324219 121.734375 C 297.113281 121.917969 297.09375 122.238281 297.277344 122.445312 C 299.207031 124.667969 301.234375 126.789062 303 129.039062 C 303.023438 129.070312 303.054688 129.105469 303.082031 129.132812 Z M 243.625 128.976562 C 243.253906 129.410156 243.300781 130.0625 243.734375 130.4375 C 244.164062 130.8125 244.820312 130.761719 245.195312 130.332031 L 245.195312 130.328125 C 247.308594 127.878906 249.261719 125.363281 251.390625 123.007812 C 251.558594 122.820312 251.566406 122.527344 251.394531 122.335938 C 251.210938 122.125 250.890625 122.105469 250.683594 122.289062 C 248.269531 124.429688 246.023438 126.742188 243.707031 128.894531 C 243.679688 128.917969 243.652344 128.949219 243.625 128.976562 Z M 232.441406 115.183594 C 232.402344 115.199219 232.363281 115.214844 232.328125 115.234375 C 231.742188 115.535156 231.515625 116.253906 231.816406 116.835938 C 232.117188 117.421875 232.835938 117.648438 233.417969 117.347656 C 235.015625 116.523438 236.753906 115.859375 238.515625 115.179688 C 240.273438 114.496094 242.070312 113.796875 243.773438 112.886719 C 244.03125 112.746094 244.148438 112.433594 244.039062 112.160156 C 243.917969 111.863281 243.582031 111.71875 243.285156 111.839844 L 243.28125 111.839844 C 241.578125 112.527344 239.785156 113.015625 237.96875 113.5 C 236.148438 113.988281 234.292969 114.46875 232.449219 115.179688 Z M 227.929688 97.894531 C 227.890625 97.894531 227.855469 97.894531 227.816406 97.898438 C 227.164062 97.941406 226.667969 98.507812 226.710938 99.164062 C 226.753906 99.816406 227.320312 100.3125 227.976562 100.269531 C 232.222656 99.984375 236.503906 99.945312 240.789062 100.046875 C 241.082031 100.050781 241.34375 99.835938 241.378906 99.535156 C 241.414062 99.21875 241.1875 98.929688 240.871094 98.894531 C 236.589844 98.382812 232.277344 98.015625 227.929688 97.894531 Z M 231.34375 80.914062 C 230.738281 80.660156 230.042969 80.949219 229.789062 81.554688 C 229.539062 82.160156 229.824219 82.855469 230.433594 83.105469 L 230.433594 83.109375 C 232.546875 83.988281 234.695312 84.6875 236.824219 85.355469 C 238.957031 86.023438 241.078125 86.660156 243.164062 87.390625 C 243.441406 87.488281 243.757812 87.359375 243.882812 87.085938 C 244.015625 86.796875 243.886719 86.453125 243.597656 86.320312 C 241.554688 85.386719 239.476562 84.550781 237.429688 83.695312 C 235.378906 82.84375 233.359375 81.96875 231.441406 80.957031 C 231.410156 80.941406 231.378906 80.925781 231.34375 80.914062 Z M 240.9375 66.417969 C 240.445312 65.988281 239.695312 66.039062 239.261719 66.53125 C 238.832031 67.027344 238.878906 67.777344 239.375 68.207031 C 241.109375 69.722656 242.921875 71.074219 244.71875 72.410156 C 245.613281 73.078125 246.507812 73.742188 247.386719 74.421875 C 248.261719 75.101562 249.140625 75.800781 250.023438 76.492188 L 250.027344 76.492188 C 250.257812 76.675781 250.59375 76.652344 250.800781 76.433594 C 251.019531 76.203125 251.011719 75.835938 250.777344 75.617188 C 249.964844 74.847656 249.160156 74.078125 248.332031 73.308594 C 247.503906 72.539062 246.667969 71.792969 245.832031 71.042969 C 244.167969 69.550781 242.519531 68.070312 241.015625 66.496094 C 240.992188 66.46875 240.964844 66.441406 240.9375 66.417969 Z M 257.644531 57.195312 C 257.371094 56.597656 256.664062 56.335938 256.066406 56.609375 C 255.472656 56.882812 255.210938 57.589844 255.484375 58.1875 L 255.484375 58.191406 L 256.089844 59.503906 L 256.238281 59.832031 L 256.371094 60.167969 C 256.457031 60.390625 256.558594 60.628906 256.65625 60.863281 C 257.046875 61.796875 257.476562 62.699219 257.910156 63.589844 C 258.777344 65.371094 259.675781 67.105469 260.414062 68.894531 L 260.414062 68.898438 C 260.527344 69.167969 260.828125 69.316406 261.113281 69.230469 C 261.421875 69.136719 261.59375 68.816406 261.503906 68.511719 C 260.933594 66.589844 260.207031 64.734375 259.535156 62.902344 C 259.203125 61.984375 258.878906 61.070312 258.601562 60.15625 C 258.53125 59.921875 258.464844 59.703125 258.394531 59.457031 L 258.292969 59.09375 L 258.175781 58.738281 L 257.691406 57.308594 C 257.675781 57.269531 257.660156 57.230469 257.644531 57.195312 Z M 274.945312 54.1875 L 274.839844 55.859375 C 274.820312 56.136719 274.808594 56.398438 274.800781 56.675781 L 274.78125 57.511719 L 274.734375 60.875 C 274.691406 63.121094 274.597656 65.382812 274.316406 67.636719 C 274.28125 67.917969 273.996094 68.117188 273.675781 68.085938 C 273.375 68.058594 273.152344 67.828125 273.164062 67.566406 L 273.164062 67.5625 C 273.25 65.347656 273.152344 63.128906 273.003906 60.90625 L 272.757812 57.554688 L 272.695312 56.714844 C 272.671875 56.433594 272.65625 56.136719 272.640625 55.851562 L 272.574219 54.167969 C 272.546875 53.589844 273.0625 53.101562 273.714844 53.082031 C 274.371094 53.0625 274.921875 53.511719 274.949219 54.089844 C 274.949219 54.125 274.949219 54.15625 274.945312 54.1875 " fill-opacity="1" fill-rule="nonzero"/></g></svg>